# xmcd
#
# Track frame offsets:
#	150
#	20162
#	37802
#	55742
#	73325
#	90032
#	104765
#	121395
#	137002
#	153392
#
# Disc length: 2305 seconds
#
# Revision: 3
# Processed by: cddbd v1.5.2PL0 Copyright (c) Steve Scherf et al.
# Submitted via: EasyCDDAExtractor 15.3.0.1
#
DISCID=8208ff0a
DTITLE=Luis Fonsi - Comenzare
DYEAR=1998
DGENRE=Latin
TTITLE0=Si Tu Quisieras
TTITLE1=Comenzare
TTITLE2=Perdoname
TTITLE3=Tu Calor
TTITLE4=Dime Como
TTITLE5=Yo Frente Al Amor
TTITLE6=Amor De Una Noche
TTITLE7=Tres Veces No
TTITLE8=Me Ire
TTITLE9=Ya No Se Querer
EXTD=US CD Version
EXTT0=
EXTT1=
EXTT2=
EXTT3=
EXTT4=
EXTT5=
EXTT6=
EXTT7=
EXTT8=
EXTT9=
PLAYORDER=
